<svg xmlns="http://www.w3.org/2000/svg" xmlns:xlink="http://www.w3.org/1999/xlink" width="36" height="36" fill="none" xmlns:v="https://vecta.io/nano"><g clip-path="url(#A)"><path d="M24.828 29.793h7.448v4.966c-.001.329-.132.644-.365.877s-.548.364-.877.365h-4.965c-.329-.001-.644-.132-.877-.365s-.364-.548-.365-.877v-4.966z" fill="#4d5e78"/><path d="M24.828 29.793h7.448v3.724h-7.448v-3.724z" fill="#44546c"/><path d="M3.724 29.793h7.448v4.966c-.001.329-.132.644-.365.877s-.548.364-.877.365H4.966c-.329-.001-.644-.132-.877-.365s-.364-.548-.365-.877v-4.966z" fill="#4d5e78"/><path d="M3.724 29.793h7.448v3.724H3.724v-3.724z" fill="#44546c"/><path d="M7.448 0h21.104c.988 0 1.935.393 2.633 1.091s1.091 1.646 1.091 2.633v26.069a2.48 2.48 0 0 1-.726 1.756 2.48 2.48 0 0 1-1.756.726H6.207a2.48 2.48 0 0 1-1.756-.726 2.48 2.48 0 0 1-.726-1.756V3.724c0-.988.393-1.935 1.091-2.633S6.461 0 7.448 0z" fill="#f37059"/><use xlink:href="#B" fill="#60d1e0"/><use xlink:href="#B" fill="#fff"/><g fill="#ffb531"><use xlink:href="#C"/><use xlink:href="#D"/><path d="M24.811 4.259a1.17 1.17 0 1 0 0-2.343 1.17 1.17 0 1 0 0 2.343z"/></g><g fill="#4d5e78"><path d="M3.724 9.931v8.69H1.242a1.24 1.24 0 0 1-1.147-.766A1.24 1.24 0 0 1 0 17.379v-6.207c.001-.329.132-.644.365-.877s.548-.364.877-.365h2.483zM36 11.172v6.207c-.001.329-.132.644-.365.877s-.548.364-.877.365h-2.483v-8.69h2.483c.329.001.644.132.877.365s.364.548.365.877z"/></g><g fill="#44546c"><path d="M36 11.174v6.207c-.001.329-.132.644-.365.877s-.548.364-.877.365h-2.483v-1.156c1.417-2.227 2.563-4.616 3.414-7.115a1.23 1.23 0 0 1 .31.824v-.002zM3.724 12.685v5.935H1.243a1.25 1.25 0 0 1-.824-.31 43.93 43.93 0 0 0 3.305-5.625z"/></g><g fill="#f0553f"><path d="M30.414 23.587H27.31v6.207a2.48 2.48 0 0 1-2.482 2.484h4.966a2.48 2.48 0 0 0 2.482-2.482v-8.069c.001.245-.047.487-.141.713s-.23.432-.404.605a1.86 1.86 0 0 1-1.318.544zM28.552 0h-4.966c.988 0 1.935.393 2.633 1.091s1.091 1.646 1.091 2.633v2.483h3.103a1.86 1.86 0 0 1 1.862 1.862V3.724c0-.988-.393-1.935-1.091-2.633A3.72 3.72 0 0 0 28.552 0z"/></g><path d="M30.414 6.207h-3.103v17.379h3.103c.245.001.487-.047.713-.141s.432-.23.605-.403.31-.378.403-.605.141-.468.141-.713V8.069a1.86 1.86 0 0 0-.544-1.318c-.173-.173-.378-.31-.605-.404a1.86 1.86 0 0 0-.713-.141z" fill="#faa498"/><use xlink:href="#E" fill="#ffb531"/><g fill="#fff"><use xlink:href="#F"/><path d="M27.9 29.816c1.059 0 1.917-.858 1.917-1.917s-.858-1.917-1.917-1.917-1.917.858-1.917 1.917.858 1.917 1.917 1.917z"/></g><g fill="#d6d6d4"><path d="M5.586 20.482h8.69v1.242h-8.69v-1.242zm13.655 0h8.69v1.242h-8.69v-1.242z"/></g><g fill="#e0e0de"><path d="M9.303 21.103a.62.62 0 0 1 .846-.232l3.266 1.87a.62.62 0 0 1 .29.375c.043.159.023.328-.058.471s-.217.247-.375.29-.328.023-.471-.058l-3.266-1.87c-.071-.04-.134-.093-.184-.158a.64.64 0 0 1-.109-.216c-.022-.078-.027-.161-.017-.242a.61.61 0 0 1 .078-.23zm13.655 0a.62.62 0 0 1 .846-.232l3.266 1.87a.62.62 0 0 1 .29.375c.043.159.023.328-.058.471s-.216.247-.375.29-.328.023-.471-.058l-3.266-1.862a.63.63 0 0 1-.185-.16.62.62 0 0 1-.126-.462c.011-.082.037-.16.078-.232z"/></g><g fill="#fff"><use xlink:href="#C"/><use xlink:href="#D"/><path d="M24.811 4.259a1.17 1.17 0 1 0 0-2.343 1.17 1.17 0 1 0 0 2.343z"/><use xlink:href="#E"/></g><g fill="#d6d6d4"><path d="M5.586 8.069h1.242v1.242H5.586V8.069zm0 2.483h1.242V18H5.586v-7.448z"/></g><g fill="#ffb531"><path d="M11.793 26.069h12.414v1.242H11.793v-1.242zm0 2.483h12.414v1.241H11.793v-1.241z"/></g><g fill="#44546c"><path d="M6.936 33.137h-1.35V36h1.35v-2.863zm2.623 0H8.271V36h1.288v-2.863zm18.357 0h-1.35V36h1.35v-2.863zm2.63 0h-1.288V36h1.288v-2.863z"/></g></g><defs><clipPath id="A"><path fill="#fff" d="M0 0h36v36H0z"/></clipPath><path id="B" d="M5.586 6.207h24.828a1.86 1.86 0 0 1 1.318.544c.173.173.31.378.403.605s.141.469.141.713v13.655c.001.245-.047.487-.141.713s-.23.432-.403.605-.378.31-.605.404-.468.141-.713.141H5.586c-.245.001-.487-.047-.713-.141s-.432-.23-.605-.404-.31-.378-.403-.605-.141-.469-.141-.713V8.069a1.86 1.86 0 0 1 .141-.713c.093-.226.23-.432.403-.605a1.86 1.86 0 0 1 1.318-.544z"/><path id="C" d="M7.454 4.259c.706 0 1.278-.524 1.278-1.171S8.16 1.917 7.454 1.917s-1.278.524-1.278 1.171.572 1.171 1.278 1.171z"/><path id="D" d="M11.181 4.259a1.17 1.17 0 1 0 0-2.343 1.17 1.17 0 1 0 0 2.343z"/><path id="E" d="M28.538 4.259c.706 0 1.278-.524 1.278-1.171s-.572-1.171-1.278-1.171-1.278.524-1.278 1.171.572 1.171 1.278 1.171z"/><path id="F" d="M8.093 29.816c1.059 0 1.917-.858 1.917-1.917s-.858-1.917-1.917-1.917-1.917.858-1.917 1.917.858 1.917 1.917 1.917z"/></defs></svg>